<?xml version="1.0" standalone="no"?>
<!DOCTYPE svg PUBLIC "-//W3C//DTD SVG 20010904//EN"
 "http://www.w3.org/TR/2001/REC-SVG-20010904/DTD/svg10.dtd">
<svg version="1.0" xmlns="http://www.w3.org/2000/svg"
 width="1080.000000pt" height="1080.000000pt" viewBox="0 0 1080.000000 1080.000000"
 preserveAspectRatio="xMidYMid meet">

<g transform="translate(0.000000,1080.000000) scale(0.100000,-0.100000)"
fill="#000000" stroke="none">
<path d="M9254 10731 c-18 -5 -48 -18 -67 -30 -46 -28 -133 -128 -152 -175
-33 -79 -6 -307 56 -462 16 -42 59 -137 94 -212 36 -74 78 -172 93 -216 27
-80 27 -84 26 -336 0 -247 -1 -264 -41 -530 -23 -152 -45 -283 -48 -291 -15
-39 -221 50 -363 156 -195 147 -220 258 -242 1124 -6 223 -15 425 -20 450 -21
110 -52 165 -143 254 -90 88 -176 113 -282 82 -49 -14 -70 -28 -120 -79 -97
-99 -123 -177 -146 -435 -17 -200 -7 -709 20 -931 61 -510 123 -747 253 -958
11 -18 19 -35 16 -37 -2 -2 -42 7 -88 21 -169 49 -530 136 -770 184 -1026 205
-1759 212 -2698 24 -320 -63 -622 -148 -858 -240 -66 -25 -182 -68 -259 -96
-325 -117 -575 -242 -865 -434 -250 -165 -416 -349 -494 -546 -36 -92 -88
-278 -122 -435 -16 -73 -31 -133 -35 -133 -7 0 -63 181 -84 270 -10 46 -15
125 -15 272 0 285 33 471 105 594 14 24 84 125 157 226 198 276 260 379 317
528 51 132 102 396 142 730 27 222 37 731 20 931 -23 258 -49 336 -146 435
-50 51 -71 65 -120 79 -106 31 -192 6 -282 -82 -91 -89 -122 -144 -143 -254
-5 -25 -14 -227 -20 -450 -22 -866 -47 -977 -242 -1124 -142 -106 -348 -195
-363 -156 -3 8 -25 139 -48 291 -40 266 -41 283 -41 530 -1 252 -1 256 26 336
15 44 57 142 93 216 35 75 78 170 94 212 62 155 89 383 56 462 -21 51 -110
150 -162 180 -90 53 -190 26 -349 -94 -208 -157 -258 -260 -399 -822 -177
-708 -200 -958 -116 -1287 45 -174 227 -657 355 -942 32 -69 63 -166 94 -290
l47 -186 -2 -183 c-1 -124 -6 -188 -14 -198 -6 -8 -29 -14 -51 -14 -38 0 -40
2 -62 53 -40 89 -194 548 -215 637 -11 47 -27 137 -36 200 -9 63 -23 138 -30
165 -23 82 -82 125 -171 125 -55 0 -91 -18 -132 -65 -41 -45 -57 -78 -94 -184
-136 -393 -143 -465 -73 -696 45 -150 193 -524 248 -630 28 -53 65 -103 112
-150 79 -81 163 -128 398 -226 76 -31 149 -65 163 -74 69 -45 263 -430 326
-645 66 -228 177 -479 282 -641 l56 -85 -20 -200 c-32 -331 -51 -634 -57 -944
-10 -531 18 -661 188 -876 121 -152 372 -375 521 -463 l74 -43 0 -67 c0 -87
20 -162 54 -209 33 -47 160 -115 295 -160 93 -31 304 -81 346 -83 19 0 17 -3
-13 -14 -20 -7 -53 -25 -73 -38 -79 -54 -806 -755 -918 -885 -20 -24 -37 -51
-37 -61 0 -20 22 -55 66 -101 l33 -35 -104 -128 c-58 -70 -105 -130 -105 -132
0 -3 39 -5 88 -5 l87 0 66 89 66 88 29 -24 c16 -14 67 -53 113 -89 l84 -64
892 0 892 0 90 60 c114 76 218 163 259 217 19 24 37 65 44 95 10 47 42 295 80
616 l12 102 44 0 c24 0 44 -2 44 -4 0 -2 -9 -80 -20 -173 -11 -92 -29 -260
-40 -373 -31 -309 -34 -325 -88 -382 -25 -27 -75 -69 -111 -95 -36 -25 -70
-50 -76 -55 -5 -4 75 -8 178 -8 l186 0 61 108 c33 59 66 122 72 140 8 22 20
34 38 38 14 3 55 14 92 25 36 10 75 19 85 19 10 0 43 -25 73 -55 96 -98 140
-105 256 -45 43 22 82 40 88 40 6 0 35 -16 65 -35 99 -63 155 -57 246 27 l55
50 58 -21 c31 -11 73 -24 93 -28 35 -8 40 -14 102 -133 l65 -125 1464 -3 1464
-2 74 55 74 55 56 -55 56 -56 95 3 94 3 -94 97 -94 97 41 45 c25 27 42 55 42
69 0 30 -32 78 -124 187 -74 87 -600 762 -740 950 -44 58 -88 113 -100 122
-20 16 -56 29 -166 58 l-45 12 125 35 c370 101 504 179 579 336 37 77 39 122
11 252 l-19 90 67 59 c146 129 238 231 273 302 l34 69 -3 325 c-2 179 1 386 7
460 17 218 53 1076 54 1320 2 253 -5 302 -75 570 -57 218 -57 202 1 292 27 42
61 84 75 93 14 9 87 43 163 74 235 98 319 145 398 226 87 88 125 160 238 445
157 394 186 526 152 691 -25 123 -120 407 -160 474 -29 50 -86 102 -121 111
-41 11 -124 -2 -152 -23 -60 -45 -62 -50 -112 -348 -11 -66 -29 -155 -41 -199
l-22 -78 -25 33 c-14 19 -60 68 -104 109 -43 41 -78 81 -78 87 0 7 21 59 46
115 128 284 311 768 355 941 84 329 61 579 -116 1287 -141 562 -191 665 -399
822 -125 94 -225 135 -292 119z m480 -3888 c-56 -149 -59 -153 -101 -153 -45
0 -63 14 -63 50 0 18 9 31 30 43 17 10 58 43 92 73 35 30 64 54 65 54 1 0 -9
-30 -23 -67z m-2423 -539 c39 -20 97 -72 159 -144 l50 -57 -10 -239 c-20 -493
-81 -888 -169 -1100 -52 -123 -191 -369 -215 -380 -30 -14 -43 -41 -30 -61 28
-46 133 -64 250 -44 208 37 399 191 472 381 11 30 21 48 21 40 1 -8 13 -106
27 -218 14 -112 23 -210 20 -218 -3 -8 -13 -14 -22 -14 -10 0 -203 -50 -430
-110 -588 -158 -1100 -275 -1814 -415 -660 -129 -934 -169 -1160 -169 -383 1
-1369 130 -1905 249 l-74 17 -6 56 c-4 32 -15 127 -26 212 -10 85 -19 161 -19
167 0 7 21 -3 47 -23 139 -106 297 -139 433 -89 25 9 65 21 90 28 57 15 62 37
13 64 -67 38 -199 184 -256 283 -99 172 -172 612 -197 1195 l-10 240 45 66
c92 134 105 132 215 -31 85 -124 226 -293 333 -399 63 -61 65 -65 51 -87 -24
-36 -21 -84 7 -107 21 -17 34 -18 92 -13 l68 6 67 -54 c84 -67 234 -165 330
-214 66 -33 73 -39 68 -62 -37 -169 -48 -502 -25 -736 12 -131 44 -322 63
-385 41 -133 125 -219 214 -219 29 0 94 38 120 69 31 37 65 128 79 209 19 108
12 572 -11 786 -9 77 -15 141 -13 142 1 1 44 -6 96 -17 296 -61 599 -65 899
-14 l32 6 0 -209 c0 -353 42 -660 108 -788 41 -79 115 -134 180 -134 29 0 94
38 120 69 29 36 65 126 78 199 38 218 -2 911 -64 1095 l-19 57 39 0 c54 0 229
27 320 50 129 32 158 55 158 124 0 31 -5 38 -40 58 -43 25 -44 26 -32 46 7 10
42 10 175 2 250 -17 520 4 717 55 140 36 310 113 310 140 0 17 -65 44 -230 95
-74 24 -259 96 -410 160 -331 142 -330 141 -330 150 0 16 601 209 740 238 74
16 177 14 211 -4z m-2371 -1050 c58 -13 173 -34 255 -45 83 -12 151 -23 153
-25 2 -1 -3 -15 -11 -31 -9 -16 -18 -45 -22 -66 -4 -20 -11 -39 -15 -42 -5 -3
-38 6 -74 19 -69 26 -398 189 -431 213 -19 14 -18 15 10 8 17 -4 77 -18 135
-31z m-70 -1844 c0 -5 -4 -10 -10 -10 -5 0 -10 5 -10 10 0 6 5 10 10 10 6 0
10 -4 10 -10z m2667 -64 c-4 -10 -1 -13 9 -9 12 4 14 -13 14 -106 0 -120 2
-116 -58 -114 -7 1 -11 -2 -7 -5 7 -7 -47 -31 -57 -25 -5 2 -8 57 -8 122 0 93
3 121 15 131 12 10 15 10 16 -1 0 -10 2 -10 5 -2 4 8 13 9 30 3 19 -8 26 -6
30 5 4 8 8 15 11 15 3 0 3 -7 0 -14z m-4954 -88 c15 -3 27 -1 27 4 0 5 6 3 13
-4 17 -16 31 -286 17 -308 -6 -8 -10 -10 -10 -4 0 6 -10 12 -22 12 -13 0 -35
5 -50 11 l-28 11 0 134 c0 129 6 178 19 158 3 -5 18 -11 34 -14z m4186 -132
c6 -24 14 -75 17 -113 7 -78 5 -81 -69 -79 -20 1 -37 -2 -37 -6 0 -5 -4 -8
-10 -8 -5 0 -10 21 -10 48 0 26 -7 74 -15 107 -16 66 -18 92 -8 82 3 -4 11 -3
17 2 6 6 24 11 38 13 15 2 30 7 34 11 13 12 32 -13 43 -57z m-3469 13 c9 -4
24 -7 44 -8 17 -1 18 -7 12 -63 -4 -39 0 -99 9 -157 9 -52 13 -96 11 -99 -10
-9 -77 9 -70 20 4 6 0 6 -14 -1 -18 -10 -21 -7 -26 17 -14 66 -26 172 -26 235
l0 68 28 -5 c15 -2 29 -5 32 -7z m810 -89 c33 0 35 -7 45 -197 l6 -113 -54 3
-55 2 -6 44 c-8 60 -8 256 1 265 4 3 13 4 21 1 7 -3 26 -5 42 -5z m1670 -2 c0
6 7 12 16 12 8 0 12 -4 9 -10 -4 -6 2 -7 17 -2 38 14 55 4 62 -36 8 -52 7
-205 -2 -217 -4 -5 -25 -10 -47 -9 -22 0 -46 -4 -52 -9 -10 -7 -13 6 -13 60 0
39 -3 106 -6 149 -4 57 -3 75 5 64 7 -10 11 -11 11 -2z m-820 -28 c10 -16 24
-276 15 -289 -4 -7 -13 -8 -23 -2 -9 4 -33 7 -53 5 l-36 -3 -7 67 c-7 81 -8
227 -1 234 10 10 98 0 105 -12z m1047 -1757 c95 -144 108 -197 58 -240 -34
-29 -40 -29 -147 8 -61 21 -98 28 -118 24 -16 -4 -66 -31 -111 -61 -45 -30
-88 -54 -95 -54 -25 0 -60 19 -128 69 -84 63 -112 65 -243 19 -74 -26 -96 -31
-120 -23 -43 16 -40 48 11 155 25 51 48 108 52 126 l6 34 177 1 c97 1 239 5
316 8 77 4 174 8 215 9 l75 2 52 -77z m543 -383 c22 -251 44 -425 60 -480 21
-75 105 -158 268 -265 39 -26 72 -50 72 -52 0 -2 -4 -2 -9 1 -5 3 -14 -1 -21
-9 -7 -8 -16 -12 -21 -9 -5 3 -9 -1 -9 -8 0 -8 -8 -21 -19 -29 -17 -15 -26
-12 -136 50 -146 81 -213 140 -225 197 -10 43 -90 766 -90 808 0 23 4 25 53
28 28 2 53 3 54 3 1 0 11 -106 23 -235z m-1135 39 c123 -103 211 -105 338 -10
30 23 59 41 65 41 6 0 44 -13 84 -29 l73 -30 63 -98 c35 -54 84 -140 109 -192
39 -78 46 -103 47 -153 1 -85 -10 -90 -120 -54 -111 36 -136 32 -213 -39 -32
-30 -65 -55 -72 -55 -8 0 -40 16 -72 36 -88 54 -120 55 -210 5 -41 -22 -82
-41 -91 -41 -9 0 -45 27 -80 59 -91 85 -121 92 -239 58 -111 -32 -131 -33
-157 -7 -46 46 -12 148 88 261 48 56 144 192 154 218 4 13 137 70 163 71 11 0
43 -19 70 -41z"/>
<path d="M5015 10179 c-818 -45 -1494 -163 -1776 -311 -118 -61 -181 -112
-253 -203 -146 -183 -193 -371 -138 -551 81 -266 368 -445 840 -523 369 -61
476 -66 1497 -66 994 1 993 1 1470 61 608 76 815 143 991 318 108 108 154 222
154 379 -1 203 -102 379 -305 530 -90 67 -282 164 -400 202 -254 83 -581 138
-975 165 -169 11 -887 11 -1105 -1z m1075 -753 c300 -31 616 -74 608 -82 -17
-16 -381 -57 -688 -76 -425 -26 -1656 -12 -1845 21 -78 14 496 115 795 141 69
5 141 12 160 14 95 11 825 -3 970 -18z"/>
</g>
</svg>
